<svg width="156" height="40" viewBox="0 0 156 40" fill="none" xmlns="http://www.w3.org/2000/svg">
<path d="M19.5585 39.0978H24.2872V31.2919C24.0666 31.2748 23.8356 31.2517 23.6128 31.2235C23.2411 31.1888 22.8694 31.1375 22.5033 31.0746C22.2976 31.046 22.0974 31.0118 21.8967 30.9715C21.7649 30.9429 21.6336 30.9202 21.5018 30.8916C21.2559 30.8458 21.0099 30.7884 20.7645 30.7261C19.9722 30.5381 19.1912 30.3051 18.4253 30.0285C18.1396 29.926 17.8538 29.8173 17.5678 29.7026C17.3847 29.6282 17.2016 29.5482 17.0163 29.4683C16.2669 29.1426 15.5358 28.7761 14.8265 28.3703V28.4619C14.1583 28.105 13.5328 27.6734 12.962 27.1753C12.9565 27.1753 12.9504 27.1692 12.9449 27.1637C12.4359 26.8036 11.944 26.4204 11.4637 26.02C10.995 25.6252 10.5428 25.2138 10.1082 24.7792C9.88765 24.562 9.66707 24.3381 9.46248 24.1098C9.45029 24.1035 9.44025 24.0937 9.4338 24.0817C9.22756 23.8611 9.03345 23.6466 8.84485 23.4199C8.43291 22.9506 8.04965 22.4703 7.68679 21.9674C7.49213 21.7043 7.30905 21.4352 7.12652 21.1606C6.98314 20.9494 6.85079 20.7432 6.72009 20.5259C6.71458 20.5204 6.71458 20.5148 6.70907 20.5088C6.5771 20.3029 6.45115 20.0913 6.33132 19.8741C6.01699 19.3193 5.71976 18.7474 5.44899 18.1645C5.33484 17.9186 5.22013 17.6727 5.11811 17.4206C4.90636 16.9177 4.71169 16.4087 4.54019 15.8942C4.47732 15.7111 4.42053 15.528 4.36318 15.3428C4.24848 14.9771 4.14259 14.6055 4.04884 14.2332C4.0141 14.102 3.97991 13.9647 3.95124 13.8334C3.88837 13.5875 3.83709 13.347 3.78581 13.1011C3.73397 12.8325 3.68268 12.5634 3.64242 12.2949C3.59114 11.9976 3.54537 11.6943 3.51118 11.3971C3.47699 11.1456 3.45604 10.9008 3.43122 10.6537C3.41964 10.5506 3.41358 10.4536 3.40807 10.3504C3.3994 10.2957 3.39369 10.2404 3.39096 10.185C3.37938 10.0477 3.37388 9.90928 3.36781 9.77307C3.34502 9.40139 3.33361 9.02403 3.33361 8.64093C1.84583 10.8479 0.825235 13.3357 0.334557 15.9517C-0.156119 18.5676 -0.106503 21.2562 0.48038 23.8522C0.485895 23.8633 0.485906 23.8804 0.491421 23.892C1.30036 27.4134 3.06693 30.6427 5.59601 33.2232C8.12503 35.8036 11.3182 37.6347 14.8226 38.5143C16.3709 38.9047 17.9618 39.1007 19.5585 39.0978Z" fill="white"/>
<path d="M24.2875 31.2917V21.6964C24.2943 21.0711 24.1769 20.4506 23.9423 19.871C23.7077 19.2913 23.3604 18.7639 22.9206 18.3194C22.4808 17.8748 21.9572 17.5218 21.3801 17.281C20.803 17.0401 20.1838 16.9161 19.5585 16.9161C18.9331 16.9161 18.314 17.0401 17.7369 17.281C17.1598 17.5218 16.6362 17.8748 16.1964 18.3194C15.7566 18.7639 15.4094 19.2913 15.1747 19.871C14.9401 20.4506 14.8228 21.0711 14.8295 21.6964V28.369C17.7284 30.028 20.958 31.026 24.2875 31.2917Z" fill="white"/>
<path d="M12.9485 27.1631C11.8553 26.2178 10.9785 25.0482 10.3775 23.7339C9.77663 22.4195 9.46577 20.9911 9.46605 19.5459C9.46643 18.8759 9.53145 18.2076 9.66022 17.5502C9.79422 16.8978 9.99142 16.2601 10.2492 15.646C11.0129 13.8353 12.2864 12.2856 13.9146 11.1853C13.9146 11.1798 13.9147 11.1798 13.9208 11.1798C14.1838 10.9338 14.4578 10.6934 14.7385 10.4629C14.7429 10.4624 14.7468 10.4602 14.7496 10.4568C17.3638 8.28883 20.468 6.79212 23.7923 6.09691C27.1166 5.40166 30.5604 5.52891 33.8243 6.46759C33.9346 6.4902 34.045 6.52274 34.1553 6.55913C30.837 2.82253 26.2122 0.500747 21.2333 0.0720184C16.2545 -0.35671 11.3008 1.14027 7.39263 4.2546C5.82744 5.50373 4.46034 6.9826 3.33777 8.64087C3.34651 13.4302 4.86985 18.094 7.68987 21.9651C9.15271 23.9686 10.9283 25.7236 12.9485 27.1631Z" fill="white"/>
<path d="M39.1046 38.6175V29.7711L39.1023 29.7706L39.1005 29.7692L39.0993 29.7672L39.0991 29.765H39.093C38.9447 29.6679 38.7957 29.5764 38.6518 29.4733C38.3027 29.2527 37.9652 29.0161 37.6338 28.7757C36.8027 28.1703 36.0119 27.5114 35.2665 26.8031C35.1236 26.6713 34.9802 26.534 34.8374 26.3967C34.8148 26.3741 34.7917 26.3454 34.7691 26.3223C34.5628 26.1226 34.3687 25.9224 34.1801 25.7157C33.9738 25.4984 33.7737 25.2745 33.5735 25.0539C33.4136 24.8653 33.2476 24.6712 33.0877 24.4765C32.9846 24.3508 32.882 24.219 32.7789 24.0878C32.6928 23.9846 32.6134 23.876 32.5329 23.7729C32.4126 23.613 32.2925 23.453 32.1783 23.2926C32.1381 23.2374 32.0984 23.1823 32.0642 23.1326C31.9153 22.9269 31.7663 22.7152 31.6296 22.4979C31.6093 22.4727 31.5909 22.4459 31.5745 22.418C31.4201 22.1836 31.2711 21.9487 31.1283 21.7088C30.991 21.497 30.8653 21.2858 30.7512 21.068C30.6993 20.988 30.6536 20.9026 30.6078 20.8165C30.4881 20.6108 30.3734 20.4051 30.2769 20.1989C30.2653 20.1763 30.2538 20.1592 30.2427 20.136C30.1109 19.8962 29.9907 19.6502 29.8766 19.4043C29.8766 19.3927 29.871 19.3872 29.865 19.3756C29.7795 19.2101 29.705 19.0447 29.6306 18.8793C29.6476 19.0999 29.6532 19.3254 29.6532 19.5482V29.16C29.6537 29.8035 29.7189 30.4454 29.8479 31.0758C30.2869 33.2063 31.4476 35.1201 33.134 36.4941C34.8205 37.8681 36.9293 38.6181 39.1046 38.6175Z" fill="white"/>
<path d="M39.1044 29.7709V19.5459C39.1034 14.9939 37.5115 10.5854 34.604 7.08299C34.4611 6.90597 34.3122 6.7284 34.1578 6.5569C34.0674 6.52668 33.9754 6.50181 33.8821 6.48246C33.8691 6.47181 33.853 6.4658 33.8363 6.46536H33.8253C33.6136 6.40249 33.3963 6.34514 33.179 6.28779C33.1448 6.28228 33.1046 6.2707 33.0643 6.25967C32.8586 6.20783 32.6468 6.16206 32.4356 6.11629C32.1323 6.04791 31.829 5.99056 31.5202 5.93927C31.3547 5.9106 31.1893 5.88799 31.0239 5.85931C30.8237 5.83064 30.618 5.80803 30.4123 5.78487C30.2232 5.7617 30.0346 5.74461 29.846 5.72972C29.749 5.72421 29.6513 5.71262 29.5488 5.70711C29.0569 5.67292 28.5594 5.65527 28.0598 5.65527C27.9335 5.65527 27.8078 5.65527 27.6881 5.66134C27.5778 5.66134 27.4764 5.66685 27.3677 5.67292C27.3085 5.66889 27.249 5.67071 27.1902 5.67843C27.1102 5.67843 27.0302 5.68395 26.9503 5.69001C26.7385 5.69553 26.5273 5.71262 26.3155 5.72972C26.2295 5.73579 26.144 5.7413 26.058 5.75288C25.7895 5.77549 25.5264 5.80417 25.2573 5.84442C25.0919 5.86703 24.9204 5.89019 24.7544 5.91832C24.7231 5.91854 24.692 5.92455 24.6628 5.93596C24.5371 5.95306 24.4054 5.97567 24.2769 5.99883C23.791 6.08431 23.3046 6.19294 22.8304 6.31867C22.687 6.35341 22.5441 6.39312 22.4068 6.43338C21.6363 6.65048 20.8784 6.91005 20.1366 7.21093C19.9253 7.29695 19.7191 7.38849 19.5134 7.48665C19.0557 7.68683 18.6096 7.90962 18.1695 8.1484C17.9864 8.23994 17.8094 8.34251 17.6318 8.44563C17.1228 8.73735 16.6254 9.05223 16.1429 9.38917C15.9025 9.56067 15.6625 9.73218 15.426 9.90975C15.2026 10.0812 14.9799 10.2583 14.7643 10.4358C14.7582 10.4449 14.7502 10.4525 14.7411 10.4584C14.6782 10.5042 14.6214 10.556 14.5585 10.6073C14.338 10.7904 14.1234 10.9845 13.9122 11.1792C15.5761 10.0512 17.5407 9.4495 19.5509 9.45204H19.5564C20.8801 9.45204 22.1909 9.71315 23.4136 10.2204C24.6363 10.7277 25.7468 11.4712 26.6817 12.4084C28.4123 14.1374 29.4567 16.4356 29.621 18.8764C29.6954 19.0418 29.7699 19.2073 29.8553 19.3727C29.8614 19.3843 29.8669 19.3898 29.8669 19.4014C29.9871 19.6473 30.1068 19.8933 30.2331 20.1332C30.2441 20.1563 30.2557 20.1734 30.2673 20.196C30.3698 20.4023 30.4845 20.608 30.5981 20.8137C30.6439 20.8997 30.6897 20.9852 30.7415 21.0651C30.8612 21.2857 30.9869 21.4942 31.1187 21.7059C31.2615 21.9458 31.4105 22.1807 31.5649 22.4151C31.5813 22.443 31.5997 22.4698 31.62 22.495C31.7567 22.7068 31.9002 22.918 32.0546 23.1298C32.0888 23.181 32.1284 23.2329 32.1687 23.2897C32.2828 23.4502 32.4031 23.6101 32.5233 23.77C32.6032 23.8731 32.6832 23.9818 32.7692 24.0849C32.8663 24.2161 32.9694 24.3479 33.078 24.4737C33.238 24.6683 33.404 24.8597 33.5639 25.051C33.7641 25.2716 33.9642 25.4972 34.1705 25.7128C34.3591 25.919 34.5532 26.1192 34.7594 26.3194C34.782 26.3425 34.8052 26.3712 34.8279 26.3938C34.9707 26.5311 35.114 26.6695 35.2568 26.8002C36.0023 27.5085 36.7931 28.1674 37.6242 28.7728C37.9551 29.0187 38.2932 29.2531 38.6423 29.4765C38.7851 29.5735 38.9339 29.6706 39.0834 29.7621H39.0894C39.0883 29.7641 39.088 29.7664 39.0885 29.7687C39.0891 29.7709 39.0905 29.7728 39.0925 29.774C39.0945 29.7751 39.0968 29.7754 39.099 29.7749C39.1013 29.7743 39.1032 29.7729 39.1044 29.7709Z" fill="white"/>
<g style="mix-blend-mode:multiply" opacity="0.1">
<g style="mix-blend-mode:multiply" opacity="0.1">
<path d="M9.46508 19.5468C9.46547 18.8768 9.53048 18.2085 9.65919 17.5511C8.26953 14.0973 7.37727 9.74523 7.39492 4.25549C5.82973 5.50463 4.46266 6.98349 3.34009 8.64177C3.34883 13.4311 4.87217 18.0949 7.69215 21.966C9.15401 23.9692 10.9285 25.7242 12.9475 27.164C11.8544 26.2187 10.9775 25.0491 10.3766 23.7347C9.77566 22.4204 9.46481 20.992 9.46508 19.5468Z" fill="white"/>
</g>
</g>
<g style="mix-blend-mode:multiply" opacity="0.16">
<g style="mix-blend-mode:multiply" opacity="0.16">
<path d="M24.2873 31.2919V30.4228C20.7337 29.5964 17.4673 27.8307 14.8293 25.3103V28.3698C17.7283 30.0285 20.9579 31.0263 24.2873 31.2919Z" fill="white"/>
</g>
</g>
<g style="mix-blend-mode:multiply" opacity="0.1">
<g style="mix-blend-mode:multiply" opacity="0.1">
<path d="M37.6753 12.2205C36.9249 10.3595 35.8888 8.6269 34.6043 7.08531C34.4614 6.90829 34.3125 6.73072 34.1581 6.55922C34.0678 6.529 33.9757 6.50413 33.8824 6.48477C33.8694 6.47413 33.8533 6.46812 33.8366 6.46768H33.8256C33.6139 6.40481 33.3966 6.34746 33.1793 6.29011C33.1451 6.2846 33.1049 6.27302 33.0646 6.26199C32.8589 6.21015 32.6471 6.16438 32.4359 6.11861C32.1326 6.05023 31.8293 5.99288 31.5205 5.94159C31.355 5.91292 31.1896 5.89031 31.0242 5.86163C30.824 5.83296 30.6183 5.81035 30.4126 5.78718C30.2235 5.76402 30.0349 5.74693 29.8463 5.73204C29.7493 5.72652 29.6517 5.71494 29.5491 5.70943C29.0572 5.67524 28.5597 5.65759 28.0601 5.65759C27.9338 5.65759 27.8081 5.65759 27.6884 5.66366C27.5781 5.66366 27.4767 5.66917 27.368 5.67524C27.3088 5.67121 27.2494 5.67309 27.1905 5.68075C27.1105 5.68075 27.0305 5.68627 26.9506 5.69233C26.7388 5.69785 26.5276 5.71494 26.3159 5.73204C26.2298 5.73811 26.1443 5.74362 26.0583 5.7552C25.7898 5.77781 25.5267 5.80649 25.2576 5.84674C25.0922 5.86935 24.9207 5.89251 24.7547 5.92064C24.7234 5.92091 24.6923 5.92687 24.6631 5.93828C24.5374 5.95538 24.4057 5.97799 24.2772 6.00115C23.7913 6.08662 23.3049 6.19526 22.8307 6.32099C22.6873 6.35573 22.5445 6.39544 22.4071 6.4357C21.6366 6.6528 20.8787 6.91243 20.1369 7.21325C19.9257 7.29927 19.7194 7.39081 19.5137 7.48897C19.056 7.68915 18.6099 7.91194 18.1698 8.15072C17.9867 8.24226 17.8097 8.34483 17.6321 8.44795C17.1231 8.73967 16.6257 9.05455 16.1432 9.39149C15.9028 9.56299 15.6629 9.7345 15.4263 9.91206C15.2029 10.0836 14.9802 10.2606 14.7646 10.4382C14.7585 10.4472 14.7505 10.4549 14.7414 10.4608C14.6785 10.5065 14.6217 10.5584 14.5588 10.6097C14.3383 10.7927 14.1237 10.9868 13.9125 11.1815C15.5764 10.0536 17.541 9.45182 19.5512 9.45436H19.5567C23.8112 8.46174 29.993 8.34483 37.3527 12.0677C37.4636 12.1118 37.5738 12.1637 37.6753 12.2205Z" fill="white"/>
</g>
</g>
<g style="mix-blend-mode:multiply" opacity="0.1">
<g style="mix-blend-mode:multiply" opacity="0.1">
<path d="M39.1044 35.5867V29.771C39.1036 29.771 39.1029 29.7709 39.1022 29.7706C39.1014 29.7703 39.1008 29.7698 39.1003 29.7692C39.0998 29.7687 39.0993 29.768 39.0991 29.7672C39.0989 29.7665 39.0988 29.7658 39.0989 29.765H39.0928C38.9445 29.6679 38.7955 29.5764 38.6516 29.4733C38.3025 29.2527 37.9651 29.0161 37.6336 28.7757C36.8025 28.1703 36.0117 27.5114 35.2663 26.8031C35.1235 26.6713 34.98 26.534 34.8372 26.3967C34.8146 26.3741 34.7915 26.3454 34.7689 26.3223C34.5626 26.1226 34.3685 25.9224 34.1799 25.7157C33.9736 25.4984 33.7735 25.2745 33.5733 25.0539C33.4134 24.8653 33.2474 24.6712 33.0875 24.4765C32.9844 24.3508 32.8818 24.219 32.7787 24.0878C32.6927 23.9846 32.6132 23.876 32.5327 23.7729C32.4125 23.613 32.2923 23.453 32.1781 23.2926C32.1379 23.2374 32.0982 23.1823 32.064 23.1326C31.9151 22.9269 31.7662 22.7152 31.6294 22.4979C31.6091 22.4727 31.5907 22.4459 31.5743 22.418C31.4199 22.1836 31.2709 21.9487 31.1281 21.7088C30.9908 21.497 30.8651 21.2858 30.751 21.068C30.6991 20.988 30.6534 20.9026 30.6076 20.8165C30.4879 20.6108 30.3732 20.4051 30.2767 20.1989C30.2652 20.1763 30.2536 20.1592 30.2425 20.136C30.1107 19.8962 29.9905 19.6502 29.8764 19.4043C29.8764 19.3927 29.8709 19.3872 29.8648 19.3756C29.7793 19.2101 29.7048 19.0447 29.6304 18.8793C29.6475 19.0999 29.653 19.3254 29.653 19.5482V22.0794C31.6153 27.091 34.7051 31.5836 38.683 35.2089C38.8187 35.3363 38.9616 35.461 39.1044 35.5867Z" fill="white"/>
</g>
</g>
<g style="mix-blend-mode:multiply" opacity="0.3">
<g style="mix-blend-mode:multiply" opacity="0.3">
<path d="M39.1045 38.6174V19.5459C39.1036 14.994 37.5116 10.5855 34.6041 7.08307C34.9984 7.62074 35.37 8.16392 35.7191 8.73026C36.0744 9.30527 36.3989 9.89869 36.6913 10.5082C36.9428 11.0171 37.1601 11.5377 37.3602 12.0638C37.4005 12.1614 37.4347 12.264 37.4749 12.3671C37.7103 12.9966 37.9127 13.6379 38.0815 14.2884C38.253 14.9364 38.3904 15.5929 38.4929 16.2554C38.5845 16.9172 38.6583 17.5822 38.6875 18.2456C38.7168 18.909 38.7108 19.5724 38.7047 20.2584L38.682 22.2988L38.6533 26.3763V30.4537C38.6533 32.0382 38.6629 33.6222 38.682 35.2056C38.6875 36.2126 38.7047 37.219 38.7163 38.2193L38.3302 38.2138L37.5582 38.1283L36.8016 37.9766L36.0522 37.7654L35.3204 37.4853L34.6173 37.1423L33.9423 36.7419L33.3021 36.2842L32.7016 35.7808L32.1352 35.2293L31.6146 34.6343L31.1459 33.994L30.734 33.3075L30.3794 32.5906L30.0821 31.8472L29.8478 31.0752C30.2867 33.2058 31.4473 35.1197 33.1337 36.4938C34.8202 37.8679 36.9291 38.618 39.1045 38.6174Z" fill="white"/>
</g>
</g>
<g style="mix-blend-mode:multiply" opacity="0.3">
<g style="mix-blend-mode:multiply" opacity="0.3">
<path d="M19.5582 39.0979H24.287V32.3901C24.2131 33.5051 24.1728 34.6262 24.1215 35.7412C24.0758 36.7647 24.0416 37.7816 24.0112 38.8062L20.397 38.7147C19.7452 38.7031 19.1105 38.7092 18.4812 38.6595C17.8487 38.6149 17.2189 38.5385 16.5942 38.4307C15.9711 38.3329 15.3543 38.1992 14.7468 38.0303C14.1299 37.8674 13.5223 37.6708 12.9269 37.4414C12.338 37.2412 11.7601 36.9611 11.1827 36.709C10.628 36.4063 10.0506 36.1433 9.52452 35.7887C8.97307 35.4743 8.46628 35.0966 7.94571 34.7304C7.68873 34.5473 7.4494 34.3361 7.20235 34.1415C6.9505 33.9477 6.71006 33.7396 6.48215 33.5183C6.25329 33.3011 6.01286 33.0893 5.79007 32.8665L5.12831 32.1744C4.90773 31.9539 4.71637 31.6941 4.50516 31.4537C4.30498 31.2083 4.09322 30.9734 3.91014 30.7103L3.34434 29.9383L2.82929 29.1321C2.64676 28.8635 2.49843 28.5806 2.34347 28.3049C2.18851 28.0291 2.01755 27.7501 1.88575 27.4584C1.61003 26.8805 1.33099 26.3003 1.11372 25.691C0.867773 25.1081 0.702337 24.496 0.496094 23.8954C1.30504 27.4169 3.07161 30.6461 5.60065 33.2266C8.12973 35.807 11.3229 37.6382 14.8273 38.5178C16.3741 38.9066 17.9633 39.1015 19.5582 39.0979Z" fill="white"/>
</g>
</g>
<path d="M63.9267 30.195H63.0046L61.5237 28.1413C61.1604 28.4672 60.7739 28.7746 60.3641 29.0633C59.9635 29.3428 59.5398 29.5896 59.0927 29.8038C58.6456 30.0087 58.1845 30.1717 57.7095 30.2928C57.2438 30.4139 56.7688 30.4744 56.2845 30.4744C55.232 30.4744 54.24 30.2975 53.3086 29.9435C52.3865 29.5896 51.5762 29.0773 50.8776 28.4067C50.1884 27.7268 49.6435 26.8978 49.243 25.9198C48.8425 24.9418 48.6422 23.8288 48.6422 22.5807C48.6422 21.4164 48.8425 20.35 49.243 19.3813C49.6435 18.4033 50.1884 17.565 50.8776 16.8665C51.5762 16.1679 52.3865 15.6277 53.3086 15.2458C54.24 14.8546 55.232 14.659 56.2845 14.659C56.7688 14.659 57.2485 14.7196 57.7235 14.8407C58.1985 14.9617 58.6596 15.1294 59.1066 15.3436C59.5537 15.5578 59.9775 15.8093 60.378 16.0981C60.7878 16.3868 61.1697 16.6988 61.5237 17.0341L63.0046 15.2598H63.9267V30.195ZM60.0846 22.5807C60.0846 22.0591 59.9822 21.5562 59.7773 21.0718C59.5817 20.5782 59.3116 20.1451 58.9669 19.7725C58.6223 19.3906 58.2171 19.0879 57.7514 18.8644C57.295 18.6315 56.8061 18.5151 56.2845 18.5151C55.7629 18.5151 55.2692 18.6036 54.8035 18.7805C54.3471 18.9575 53.9466 19.2183 53.602 19.5629C53.2667 19.9076 53.0012 20.336 52.8056 20.8483C52.61 21.3512 52.5122 21.9287 52.5122 22.5807C52.5122 23.2327 52.61 23.8148 52.8056 24.3271C53.0012 24.8301 53.2667 25.2539 53.602 25.5985C53.9466 25.9431 54.3471 26.2039 54.8035 26.3809C55.2692 26.5578 55.7629 26.6463 56.2845 26.6463C56.8061 26.6463 57.295 26.5346 57.7514 26.311C58.2171 26.0782 58.6223 25.7755 58.9669 25.4029C59.3116 25.021 59.5817 24.5879 59.7773 24.1036C59.9822 23.6099 60.0846 23.1023 60.0846 22.5807Z" fill="white"/>
<path d="M77.842 28.4486C77.5347 28.728 77.204 28.9935 76.8501 29.245C76.5055 29.4871 76.1422 29.7014 75.7603 29.8877C75.3784 30.0646 74.9826 30.2043 74.5728 30.3068C74.1723 30.4186 73.7624 30.4744 73.3433 30.4744C72.4212 30.4744 71.555 30.3114 70.7447 29.9854C69.9343 29.6595 69.2218 29.1984 68.6071 28.6023C68.0016 27.9969 67.522 27.2657 67.168 26.4088C66.8234 25.5426 66.6511 24.5739 66.6511 23.5028V15.2319H70.4513V23.5028C70.4513 24.0058 70.5258 24.4575 70.6748 24.858C70.8331 25.2492 71.0427 25.5799 71.3035 25.85C71.5643 26.1201 71.867 26.325 72.2116 26.4647C72.5656 26.6044 72.9428 26.6743 73.3433 26.6743C73.7345 26.6743 74.1024 26.5858 74.447 26.4088C74.801 26.2225 75.1083 25.9804 75.3691 25.6823C75.6299 25.3843 75.8348 25.049 75.9839 24.6764C76.1329 24.2945 76.2074 23.9033 76.2074 23.5028V15.2319H80.0215V30.195H79.0994L77.842 28.4486Z" fill="white"/>
<path d="M97.4017 30.195H96.4796L94.9987 28.1413C94.6354 28.4672 94.2489 28.7746 93.8391 29.0633C93.4386 29.3428 93.0148 29.5896 92.5677 29.8038C92.1206 30.0087 91.6596 30.1717 91.1845 30.2928C90.7188 30.4139 90.2438 30.4744 89.7595 30.4744C88.707 30.4744 87.715 30.2788 86.7836 29.8877C85.8615 29.4871 85.0512 28.9376 84.3526 28.239C83.6634 27.5312 83.1185 26.6976 82.718 25.7382C82.3175 24.7695 82.1172 23.717 82.1172 22.5807C82.1172 21.4537 82.3175 20.4059 82.718 19.4372C83.1185 18.4685 83.6634 17.6302 84.3526 16.9224C85.0512 16.2145 85.8615 15.6603 86.7836 15.2598C87.715 14.8593 88.707 14.659 89.7595 14.659C90.0948 14.659 90.4394 14.687 90.7933 14.7429C91.1566 14.7987 91.5059 14.8919 91.8412 15.0223C92.1858 15.1434 92.5071 15.3064 92.8052 15.5113C93.1032 15.7162 93.3547 15.9677 93.5596 16.2657V9.28012H97.4017V30.195ZM93.5596 22.5807C93.5596 22.0591 93.4572 21.5562 93.2523 21.0718C93.0567 20.5782 92.7866 20.1451 92.4419 19.7725C92.0973 19.3906 91.6922 19.0879 91.2264 18.8644C90.7701 18.6315 90.2811 18.5151 89.7595 18.5151C89.2379 18.5151 88.7442 18.6082 88.2785 18.7945C87.8221 18.9808 87.4216 19.2509 87.077 19.6048C86.7417 19.9495 86.4762 20.3733 86.2806 20.8762C86.085 21.3792 85.9872 21.9473 85.9872 22.5807C85.9872 23.1302 86.085 23.6518 86.2806 24.1455C86.4762 24.6391 86.7417 25.0722 87.077 25.4448C87.4216 25.8174 87.8221 26.1108 88.2785 26.325C88.7442 26.5392 89.2379 26.6463 89.7595 26.6463C90.2811 26.6463 90.7701 26.5346 91.2264 26.311C91.6922 26.0782 92.0973 25.7755 92.4419 25.4029C92.7866 25.021 93.0567 24.5879 93.2523 24.1036C93.4572 23.6099 93.5596 23.1023 93.5596 22.5807Z" fill="white"/>
<path d="M104.82 11.1662C104.82 11.5202 104.751 11.8508 104.611 12.1582C104.48 12.4656 104.299 12.7357 104.066 12.9685C103.833 13.1921 103.558 13.3737 103.242 13.5134C102.934 13.6438 102.604 13.709 102.25 13.709C101.896 13.709 101.56 13.6438 101.244 13.5134C100.936 13.3737 100.666 13.1921 100.433 12.9685C100.21 12.7357 100.028 12.4656 99.8886 12.1582C99.7582 11.8508 99.693 11.5202 99.693 11.1662C99.693 10.8216 99.7582 10.4956 99.8886 10.1882C100.028 9.87157 100.21 9.60146 100.433 9.37792C100.666 9.14507 100.936 8.96344 101.244 8.83304C101.56 8.69333 101.896 8.62347 102.25 8.62347C102.604 8.62347 102.934 8.69333 103.242 8.83304C103.558 8.96344 103.833 9.14507 104.066 9.37792C104.299 9.60146 104.48 9.87157 104.611 10.1882C104.751 10.4956 104.82 10.8216 104.82 11.1662ZM104.164 30.195H100.322V15.2319H104.164V30.195Z" fill="white"/>
<path d="M114.586 30.195C113.664 30.195 112.798 30.0227 111.988 29.6781C111.177 29.3241 110.465 28.8445 109.85 28.239C109.245 27.6243 108.765 26.9118 108.411 26.1015C108.066 25.2911 107.894 24.4249 107.894 23.5028V19.06H106.036V15.2598H107.894V9.28012H111.694V15.2598H117.478V19.06H111.694V23.5028C111.694 23.9033 111.769 24.2805 111.918 24.6345C112.067 24.9791 112.272 25.2818 112.533 25.5426C112.793 25.8034 113.101 26.013 113.455 26.1713C113.809 26.3203 114.186 26.3948 114.586 26.3948H117.478V30.195H114.586Z" fill="white"/>
<path d="M124.129 11.1662C124.129 11.5202 124.059 11.8508 123.919 12.1582C123.789 12.4656 123.607 12.7357 123.374 12.9685C123.141 13.1921 122.867 13.3737 122.55 13.5134C122.243 13.6438 121.912 13.709 121.558 13.709C121.204 13.709 120.869 13.6438 120.552 13.5134C120.245 13.3737 119.975 13.1921 119.742 12.9685C119.518 12.7357 119.337 12.4656 119.197 12.1582C119.066 11.8508 119.001 11.5202 119.001 11.1662C119.001 10.8216 119.066 10.4956 119.197 10.1882C119.337 9.87157 119.518 9.60146 119.742 9.37792C119.975 9.14507 120.245 8.96344 120.552 8.83304C120.869 8.69333 121.204 8.62347 121.558 8.62347C121.912 8.62347 122.243 8.69333 122.55 8.83304C122.867 8.96344 123.141 9.14507 123.374 9.37792C123.607 9.60146 123.789 9.87157 123.919 10.1882C124.059 10.4956 124.129 10.8216 124.129 11.1662ZM123.472 30.195H119.63V15.2319H123.472V30.195Z" fill="white"/>
<path d="M139.469 18.2077L136.675 21.0159C136.535 20.6247 136.344 20.2755 136.102 19.9681C135.86 19.6514 135.585 19.386 135.278 19.1717C134.98 18.9575 134.654 18.7945 134.3 18.6827C133.946 18.571 133.582 18.5151 133.21 18.5151C132.688 18.5151 132.195 18.6222 131.729 18.8364C131.273 19.0507 130.872 19.3534 130.527 19.7446C130.192 20.1264 129.927 20.5828 129.731 21.1137C129.535 21.6446 129.438 22.2314 129.438 22.8741C129.438 23.3957 129.535 23.8847 129.731 24.3411C129.927 24.7975 130.192 25.198 130.527 25.5426C130.872 25.8872 131.273 26.1573 131.729 26.3529C132.195 26.5485 132.688 26.6463 133.21 26.6463C133.582 26.6463 133.941 26.5951 134.286 26.4926C134.63 26.3902 134.952 26.2458 135.25 26.0595C135.557 25.8639 135.827 25.6311 136.06 25.361C136.302 25.0816 136.498 24.7742 136.647 24.4389L139.441 27.2471C139.087 27.7501 138.677 28.2018 138.212 28.6023C137.755 29.0028 137.257 29.3428 136.717 29.6222C136.186 29.9016 135.622 30.1112 135.026 30.2509C134.439 30.3999 133.834 30.4744 133.21 30.4744C132.157 30.4744 131.165 30.2788 130.234 29.8877C129.312 29.4871 128.502 28.9423 127.803 28.253C127.114 27.5638 126.569 26.7581 126.168 25.836C125.768 24.9139 125.568 23.9266 125.568 22.8741C125.568 21.7285 125.768 20.6573 126.168 19.6607C126.569 18.6641 127.114 17.7979 127.803 17.0621C128.502 16.317 129.312 15.7302 130.234 15.3017C131.165 14.8733 132.157 14.659 133.21 14.659C133.834 14.659 134.444 14.7382 135.04 14.8965C135.646 15.0549 136.218 15.2877 136.759 15.5951C137.308 15.8932 137.811 16.2611 138.267 16.6988C138.733 17.1366 139.134 17.6396 139.469 18.2077Z" fill="white"/>
<path d="M155.606 30.195H154.684L153.203 28.1413C152.839 28.4672 152.453 28.7746 152.043 29.0633C151.643 29.3428 151.219 29.5896 150.772 29.8038C150.325 30.0087 149.864 30.1717 149.389 30.2928C148.923 30.4139 148.448 30.4744 147.964 30.4744C146.911 30.4744 145.919 30.2975 144.988 29.9435C144.066 29.5896 143.255 29.0773 142.557 28.4067C141.867 27.7268 141.323 26.8978 140.922 25.9198C140.522 24.9418 140.321 23.8288 140.321 22.5807C140.321 21.4164 140.522 20.35 140.922 19.3813C141.323 18.4033 141.867 17.565 142.557 16.8665C143.255 16.1679 144.066 15.6277 144.988 15.2458C145.919 14.8546 146.911 14.659 147.964 14.659C148.448 14.659 148.928 14.7196 149.403 14.8407C149.878 14.9617 150.339 15.1294 150.786 15.3436C151.233 15.5578 151.657 15.8093 152.057 16.0981C152.467 16.3868 152.849 16.6988 153.203 17.0341L154.684 15.2598H155.606V30.195ZM151.764 22.5807C151.764 22.0591 151.661 21.5562 151.456 21.0718C151.261 20.5782 150.991 20.1451 150.646 19.7725C150.301 19.3906 149.896 19.0879 149.43 18.8644C148.974 18.6315 148.485 18.5151 147.964 18.5151C147.442 18.5151 146.948 18.6036 146.483 18.7805C146.026 18.9575 145.626 19.2183 145.281 19.5629C144.946 19.9076 144.68 20.336 144.485 20.8483C144.289 21.3512 144.191 21.9287 144.191 22.5807C144.191 23.2327 144.289 23.8148 144.485 24.3271C144.68 24.8301 144.946 25.2539 145.281 25.5985C145.626 25.9431 146.026 26.2039 146.483 26.3809C146.948 26.5578 147.442 26.6463 147.964 26.6463C148.485 26.6463 148.974 26.5346 149.43 26.311C149.896 26.0782 150.301 25.7755 150.646 25.4029C150.991 25.021 151.261 24.5879 151.456 24.1036C151.661 23.6099 151.764 23.1023 151.764 22.5807Z" fill="white"/>
</svg>
